<?xml version="1.0" encoding="UTF-8"?>
<svg xmlns="http://www.w3.org/2000/svg" width="800px" height="800px" viewBox="0 0 24 24" fill="none">
  <g id="SVGRepo_bgCarrier" stroke-width="0"></g>
  <g id="SVGRepo_tracerCarrier" stroke-linecap="round" stroke-linejoin="round"></g>
  <g id="SVGRepo_iconCarrier">
    <path d="M12 19.5C16.1421 19.5 19.5 16.1421 19.5 12C19.5 7.85786 16.1421 4.5 12 4.5C7.85786 4.5 4.5 7.85786 4.5 12C4.5 16.1421 7.85786 19.5 12 19.5Z" stroke="#FF4B4B" stroke-width="1.5" stroke-linecap="round" stroke-linejoin="round"></path>
    <path d="M12 15C14.0711 15 15.75 13.3211 15.75 11.25C15.75 9.17893 14.0711 7.5 12 7.5C9.92893 7.5 8.25 9.17893 8.25 11.25C8.25 13.3211 9.92893 15 12 15Z" stroke="#FF4B4B" stroke-width="1.5" stroke-linecap="round" stroke-linejoin="round"></path>
    <path d="M8.25 20.25C8.25 17.7647 9.64679 15.6815 12 14.85" stroke="#FF4B4B" stroke-width="1.5" stroke-linecap="round" stroke-linejoin="round"></path>
    <path d="M15.75 20.25C15.75 17.7647 14.3532 15.6815 12 14.85" stroke="#FF4B4B" stroke-width="1.5" stroke-linecap="round" stroke-linejoin="round"></path>
    <path d="M3 14.25C3 18.2541 6.74602 21 10.7501 21H13.25C17.254 21 21 17.254 21 13.25V10.75C21 6.74602 18.2541 3 14.25 3H10.75C6.74602 3 3 6.74602 3 10.75V14.25Z" stroke="#FF4B4B" stroke-width="1.5" stroke-linecap="round" stroke-linejoin="round"></path>
  </g>
</svg>
